Coordinates
version=1
nRows=17
nColumns=24
inDegrees=yes

Units are S.I. units (second, meters, Newtons, ...)
Angles are in degrees.

endheader
time	pelvis_tilt	pelvis_list	pelvis_rotation	pelvis_tx	pelvis_ty	pelvis_tz	hip_flexion_r	hip_adduction_r	hip_rotation_r	knee_angle_r	ankle_angle_r	subtalar_angle_r	mtp_angle_r	hip_flexion_l	hip_adduction_l	hip_rotation_l	knee_angle_l	ankle_angle_l	subtalar_angle_l	mtp_angle_l	lumbar_extension	lumbar_bending	lumbar_rotation
      0.96166667	     -1.57716770	      0.89833967	      2.11056883	     -0.36685303	      1.00451286	      0.36598145	     11.33181618	      1.42751994	      0.49688577	    -19.86073381	     13.33196822	    -10.57936096	     -5.85696027	     17.17585956	     -0.06273726	     -0.23694232	    -68.18466226	     -2.00452277	    -11.79779613	     -0.90941968	    -11.31308058	      7.25239212	     -1.11998091
      0.96583333	     -1.56379670	      1.03373187	      1.98335439	     -0.36235183	      1.00536642	      0.36649139	     10.82508754	      1.31216127	      0.48742512	    -19.41044883	     13.37933531	    -10.39494902	     -5.84633181	     17.65519693	      0.04589051	     -0.39204422	    -67.74403457	     -1.33214641	    -11.49459839	     -0.93476386	    -11.37645700	      7.05168320	     -0.88218704
      0.97000000	     -1.54686902	      1.17520971	      1.86509627	     -0.35788635	      1.00619634	      0.36697812	     10.31729992	      1.18655701	      0.47700490	    -18.96055523	     13.40123117	    -10.20539125	     -5.83435665	     18.12483859	      0.16887604	     -0.52481825	    -67.26175803	     -0.69682101	    -11.20667760	     -0.95507552	    -11.46667866	      6.83597662	     -0.69080093
      0.97416667	     -1.53965196	      1.31079389	      1.74352684	     -0.35341815	      1.00695623	      0.36744899	      9.82695830	      1.06298236	      0.45306716	    -18.52294321	     13.43920341	    -10.00286692	     -5.81896601	     18.59625950	      0.28192513	     -0.65989615	    -66.74393289	     -0.08220755	    -10.89504679	     -0.97454627	    -11.53084711	      6.63566945	     -0.49099528
      0.97833333	     -1.51806138	      1.44164504	      1.62404999	     -0.34893570	      1.00770201	      0.36790702	      9.31878776	      0.94190320	      0.41866063	    -18.08067116	     13.48026177	     -9.79324938	     -5.79977409	     19.04041091	      0.38807159	     -0.78948185	    -66.18480089	      0.49710209	    -10.58610196	     -0.99581978	    -11.60533970	      6.43931671	     -0.29683137
      0.98250000	     -1.50053929	      1.56430380	      1.50868321	     -0.34447084	      1.00839926	      0.36833598	      8.81771868	      0.82622899	      0.38347169	    -17.63959601	     13.50506917	     -9.59059225	     -5.77964267	     19.48176357	      0.49165860	     -0.89912377	    -65.59000859	      1.04277389	    -10.26958207	     -1.01223007	    -11.68150788	      6.26538882	     -0.12290877
      0.98666667	     -1.47763502	      1.68786543	      1.39391102	     -0.34000297	      1.00905461	      0.36875492	      8.31577320	      0.70624244	      0.33058327	    -17.20771696	     13.54204275	     -9.37349348	     -5.75560746	     19.90775118	      0.59174562	     -1.01161828	    -64.95984062	      1.55539254	     -9.95182487	     -1.02859284	    -11.75740724	      6.08013154	      0.05147618
      0.99083333	     -1.46864608	      1.80418600	      1.27903185	     -0.33554309	      1.00962652	      0.36916797	      7.83517608	      0.59214943	      0.27715182	    -16.78867209	     13.59832975	     -9.13962418	     -5.72488151	     20.34254211	      0.68399622	     -1.11702016	    -64.30238957	      2.03215310	     -9.64270998	     -1.04787366	    -11.82138309	      5.89409230	      0.22969491
      0.99500000	     -1.45338170	      1.90095786	      1.17015828	     -0.33107591	      1.01017898	      0.36955624	      7.34233633	      0.49740716	      0.22057431	    -16.35555324	     13.63300898	     -8.92091766	     -5.69156428	     20.76045195	      0.75925382	     -1.20165513	    -63.61012647	      2.47248223	     -9.33931366	     -1.06606847	    -11.88702473	      5.74275030	      0.39879053
      0.99916667	     -1.46373270	      2.02383735	      1.05537336	     -0.32660636	      1.01065073	      0.36991103	      6.89014161	      0.36841194	      0.15705125	    -15.94894517	     13.63352050	     -8.70803784	     -5.66815642	     21.19000789	      0.86975121	     -1.28393967	    -62.87120413	      2.85100441	     -9.08245194	     -1.07323768	    -11.91668677	      5.57384676	      0.51602198
      1.00333333	     -1.41058038	      2.11035306	      0.95050509	     -0.32213113	      1.01116380	      0.37027228	      6.35715576	      0.28140597	      0.09052054	    -15.52183676	     13.73275141	     -8.45859737	     -5.62590302	     21.54482358	      0.93425292	     -1.35134933	    -62.11245478	      3.22550859	     -8.78071902	     -1.08813857	    -12.02784702	      5.43343640	      0.70905322
      1.00750000	     -1.39135450	      2.20509667	      0.83994558	     -0.31765596	      1.01158320	      0.37060777	      5.87008069	      0.18123576	      0.02341924	    -15.11063289	     13.78607089	     -8.22247125	     -5.58202465	     21.92348075	      1.01286299	     -1.41467314	    -61.31605083	      3.54411964	     -8.52967880	     -1.10238309	    -12.09508617	      5.29010722	      0.87014030
      1.01166667	     -1.36999326	      2.30681633	      0.73029249	     -0.31317915	      1.01196462	      0.37092457	      5.38518119	      0.07046463	     -0.05152948	    -14.71003416	     13.85091258	     -7.97447286	     -5.53275867	     22.28606798	      1.10309039	     -1.46725641	    -60.48230681	      3.82269801	     -8.30182305	     -1.11615543	    -12.16433631	      5.13909917	      1.02315050
      1.01583333	     -1.34614360	      2.39486402	      0.62297140	     -0.30869556	      1.01229855	      0.37122729	      4.89694730	     -0.02619564	     -0.12578316	    -14.30889694	     13.91438147	     -7.72824897	     -5.48343411	     22.63638222	      1.17928685	     -1.50944491	    -59.62253159	      4.06695264	     -8.09531253	     -1.12671460	    -12.23329858	      5.00783012	      1.17043381
      1.02000000	     -1.33190466	      2.48496894	      0.51132311	     -0.30420534	      1.01259731	      0.37150965	      4.42165935	     -0.12789780	     -0.19406015	    -13.91185975	     13.94055193	     -7.50008060	     -5.44594903	     22.98030614	      1.26209415	     -1.54047604	    -58.72175298	      4.26506761	     -7.91813101	     -1.13239699	    -12.28315883	      4.88547604	      1.28940732
      1.02416667	     -1.31004077	      2.56223382	      0.40372134	     -0.29971420	      1.01283751	      0.37178874	      3.93676376	     -0.21564672	     -0.26090589	    -13.51386217	     14.00230716	     -7.26332044	     -5.40844826	     23.30907669	      1.32991153	     -1.56323049	    -57.80323547	      4.44514266	     -7.75620096	     -1.13651853	    -12.34786213	      4.76629026	      1.42279340
      1.02833333	     -1.25186521	      2.63545629	      0.29333161	     -0.29522421	      1.01308756	      0.37205528	      3.41383813	     -0.30131125	     -0.33261390	    -13.11987520	     14.12829733	     -6.98864715	     -5.34558700	     23.58436693	      1.39565798	     -1.57491423	    -56.85192412	      4.59489280	     -7.63697571	     -1.14456710	    -12.46795667	      4.64415011	      1.61106028
